# xmcd CD database file
#
# Track frame offsets:
#	150
#	10881
#	23023
#	36847
#	50752
#	64094
#	77886
#	90765
#	103885
#	116918
#	130380
#	144635
#	158674
#	173110
#	188549
#	203148
#	216711
#
# Disc length: 3079 seconds
#
# Revision: 0
# Processed by: cddbd v1.4PL0 Copyright (c) Steve Scherf et al.
# Submitted via: CDex 1.51
#
DISCID=ef0c0511
DTITLE=Billie Holiday - Night and Day Compilation
DYEAR=1900
DGENRE=Jazz
TTITLE0=You Can't Be Mine (And Someone Else's Too)
TTITLE1=Here It Is Tomorrow Again
TTITLE2=Long Gone Blues
TTITLE3=More Than You Know
TTITLE4=Night and Day
TTITLE5=The Man I Love
TTITLE6=St. Louis Blues
TTITLE7=Let's Do It
TTITLE8=God Bless the Child
TTITLE9=All of Me
TTITLE10=Gloomy Sunday
TTITLE11=Until the Real Thing Comes Along
TTITLE12=Trav'lin' Light
TTITLE13=I Cover the Waterfront
TTITLE14=I'm Yours
TTITLE15=He's Funny That Way
TTITLE16=Embraceble You
EXTD=
EXTT0=
EXTT1=
EXTT2=
EXTT3=
EXTT4=
EXTT5=
EXTT6=
EXTT7=
EXTT8=
EXTT9=
EXTT10=
EXTT11=
EXTT12=
EXTT13=
EXTT14=
EXTT15=
EXTT16=
PLAYORDER=
